<svg width="144" height="41" viewBox="0 0 144 41" fill="none" xmlns="http://www.w3.org/2000/svg">
<path d="M15.52 0.799997V40H7.848V8.584L0.176 11.72V5.056L10.648 0.799997H15.52ZM25.2434 31.432C26.5128 31.432 27.5954 31.88 28.4914 32.776C29.3874 33.672 29.8354 34.7547 29.8354 36.024C29.8354 37.256 29.3874 38.32 28.4914 39.216C27.5954 40.112 26.5128 40.56 25.2434 40.56C24.0114 40.56 22.9474 40.112 22.0514 39.216C21.1554 38.32 20.7074 37.256 20.7074 36.024C20.7074 34.7547 21.1554 33.672 22.0514 32.776C22.9474 31.88 24.0114 31.432 25.2434 31.432ZM47.2374 0.127999C49.8134 0.127999 52.1654 0.613332 54.2934 1.584C56.4214 2.51733 58.2321 3.84267 59.7254 5.56C61.2561 7.24 62.4321 9.27466 63.2534 11.664C64.1121 14.0533 64.5414 16.6853 64.5414 19.56C64.5414 22.696 64.0748 25.5707 63.1414 28.184C62.2081 30.76 60.9014 32.9627 59.2214 34.792C57.5414 36.6213 55.5068 38.04 53.1174 39.048C50.7281 40.056 48.0961 40.56 45.2214 40.56C43.0934 40.56 40.9841 40.224 38.8934 39.552C36.8028 38.8427 35.0481 37.9093 33.6294 36.752L37.9974 31.264C39.1548 32.16 40.3681 32.8133 41.6374 33.224C42.9068 33.6347 44.2881 33.84 45.7814 33.84C49.1414 33.84 51.7734 32.7013 53.6774 30.424C55.6188 28.1093 56.6828 24.8427 56.8694 20.624C55.6001 22.0427 54.0321 23.1627 52.1654 23.984C50.2988 24.768 48.3201 25.16 46.2294 25.16C44.2508 25.16 42.4214 24.8613 40.7414 24.264C39.0614 23.6667 37.6054 22.8453 36.3734 21.8C35.1788 20.7173 34.2454 19.448 33.5734 17.992C32.9014 16.4987 32.5654 14.8747 32.5654 13.12C32.5654 11.2533 32.9388 9.536 33.6854 7.968C34.4321 6.36267 35.4401 4.98133 36.7094 3.824C38.0161 2.66666 39.5654 1.77066 41.3574 1.136C43.1868 0.463999 45.1468 0.127999 47.2374 0.127999ZM47.4614 19.112C49.2161 19.112 50.8401 18.7387 52.3334 17.992C53.8641 17.2453 55.2268 16.1813 56.4214 14.8C55.8241 12.336 54.7414 10.3573 53.1734 8.864C51.6054 7.37067 49.7388 6.624 47.5734 6.624C45.4454 6.624 43.6534 7.22133 42.1974 8.416C40.7788 9.61067 40.0694 11.1227 40.0694 12.952C40.0694 14.7813 40.7601 16.2747 42.1414 17.432C43.5228 18.552 45.2961 19.112 47.4614 19.112ZM90.959 37.2L77.407 11.16V40H69.903V0.799997H80.319L91.071 21.856L101.823 0.799997H112.239V40H104.567V11.216L90.959 37.2ZM134.182 32.776H128.19V22.864H118.334V16.928H128.19V7.296H134.182V16.928H143.982V22.864H134.182V32.776Z" fill="#222222"/>
</svg>
