<svg width="139" height="41" viewBox="0 0 139 41" fill="none" xmlns="http://www.w3.org/2000/svg">
<path d="M15.52 0.799997V40H7.848V8.584L0.176 11.72V5.056L10.648 0.799997H15.52ZM37.6754 40.56C35.0994 40.56 32.7474 40.0747 30.6194 39.104C28.4914 38.1333 26.6808 36.7707 25.1874 35.016C23.6941 33.2613 22.5181 31.1333 21.6594 28.632C20.8381 26.1307 20.4274 23.368 20.4274 20.344C20.4274 17.3573 20.8381 14.6133 21.6594 12.112C22.5181 9.61067 23.6941 7.48267 25.1874 5.728C26.7181 3.97333 28.5474 2.61066 30.6754 1.64C32.8034 0.669331 35.1368 0.183999 37.6754 0.183999C40.2514 0.183999 42.6034 0.669331 44.7314 1.64C46.8594 2.61066 48.6701 3.97333 50.1634 5.728C51.6568 7.48267 52.8141 9.61067 53.6354 12.112C54.4941 14.6133 54.9234 17.3573 54.9234 20.344C54.9234 23.368 54.5128 26.1307 53.6914 28.632C52.8701 31.1333 51.6941 33.2613 50.1634 35.016C48.6701 36.7707 46.8594 38.1333 44.7314 39.104C42.6034 40.0747 40.2514 40.56 37.6754 40.56ZM37.6754 33.896C40.6994 33.896 43.0888 32.6827 44.8434 30.256C46.5981 27.8293 47.4754 24.5253 47.4754 20.344C47.4754 16.2373 46.5794 12.9707 44.7874 10.544C43.0328 8.08 40.6621 6.848 37.6754 6.848C34.6888 6.848 32.3181 8.08 30.5634 10.544C28.8088 12.9707 27.9314 16.2373 27.9314 20.344C27.9314 24.5253 28.8088 27.8293 30.5634 30.256C32.3181 32.6827 34.6888 33.896 37.6754 33.896ZM76.0114 40.56C73.4354 40.56 71.0834 40.0747 68.9554 39.104C66.8274 38.1333 65.0167 36.7707 63.5234 35.016C62.03 33.2613 60.854 31.1333 59.9954 28.632C59.174 26.1307 58.7634 23.368 58.7634 20.344C58.7634 17.3573 59.174 14.6133 59.9954 12.112C60.854 9.61067 62.03 7.48267 63.5234 5.728C65.054 3.97333 66.8834 2.61066 69.0114 1.64C71.1394 0.669331 73.4727 0.183999 76.0114 0.183999C78.5874 0.183999 80.9394 0.669331 83.0674 1.64C85.1954 2.61066 87.006 3.97333 88.4994 5.728C89.9927 7.48267 91.15 9.61067 91.9714 12.112C92.83 14.6133 93.2594 17.3573 93.2594 20.344C93.2594 23.368 92.8487 26.1307 92.0274 28.632C91.206 31.1333 90.03 33.2613 88.4994 35.016C87.006 36.7707 85.1954 38.1333 83.0674 39.104C80.9394 40.0747 78.5874 40.56 76.0114 40.56ZM76.0114 33.896C79.0354 33.896 81.4247 32.6827 83.1794 30.256C84.934 27.8293 85.8114 24.5253 85.8114 20.344C85.8114 16.2373 84.9154 12.9707 83.1234 10.544C81.3687 8.08 78.998 6.848 76.0114 6.848C73.0247 6.848 70.654 8.08 68.8994 10.544C67.1447 12.9707 66.2674 16.2373 66.2674 20.344C66.2674 24.5253 67.1447 27.8293 68.8994 30.256C70.654 32.6827 73.0247 33.896 76.0114 33.896ZM105.387 20.68C102.699 20.68 100.534 19.7467 98.8913 17.88C97.2486 16.0133 96.4273 13.568 96.4273 10.544C96.4273 7.55733 97.2486 5.13067 98.8913 3.264C100.534 1.39733 102.699 0.463998 105.387 0.463998C108.038 0.463998 110.185 1.39733 111.827 3.264C113.47 5.13067 114.291 7.55733 114.291 10.544C114.291 13.568 113.47 16.0133 111.827 17.88C110.222 19.7467 108.075 20.68 105.387 20.68ZM105.387 16.592C106.731 16.592 107.777 16.0507 108.523 14.968C109.307 13.8853 109.699 12.4107 109.699 10.544C109.699 8.71466 109.307 7.25866 108.523 6.176C107.739 5.09333 106.694 4.552 105.387 4.552C104.043 4.552 102.979 5.09333 102.195 6.176C101.449 7.25866 101.057 8.71466 101.019 10.544C101.057 12.4107 101.449 13.8853 102.195 14.968C102.942 16.0507 104.006 16.592 105.387 16.592ZM108.915 40H103.203L125.379 0.799997H131.147L108.915 40ZM129.467 40.28C126.779 40.28 124.614 39.3467 122.971 37.48C121.329 35.6133 120.507 33.168 120.507 30.144C120.507 27.1573 121.329 24.7307 122.971 22.864C124.614 20.9973 126.779 20.064 129.467 20.064C132.118 20.064 134.265 20.9973 135.907 22.864C137.55 24.7307 138.371 27.1573 138.371 30.144C138.371 33.168 137.55 35.6133 135.907 37.48C134.302 39.3467 132.155 40.28 129.467 40.28ZM129.467 36.192C130.811 36.192 131.857 35.6507 132.603 34.568C133.387 33.4853 133.779 32.0107 133.779 30.144C133.779 28.3147 133.387 26.8587 132.603 25.776C131.819 24.6933 130.774 24.152 129.467 24.152C128.123 24.152 127.059 24.6933 126.275 25.776C125.529 26.8587 125.137 28.3147 125.099 30.144C125.137 32.0107 125.529 33.4853 126.275 34.568C127.022 35.6507 128.086 36.192 129.467 36.192Z" fill="#222222"/>
</svg>
