<svg width="110" height="40" viewBox="0 0 110 40" fill="none" xmlns="http://www.w3.org/2000/svg">
<path d="M2.128 40V34.624L17.584 20.792C19.3387 19.1867 20.5893 17.7867 21.336 16.592C22.0827 15.36 22.456 14.0907 22.456 12.784C22.456 11.0667 21.784 9.648 20.44 8.528C19.096 7.408 17.416 6.848 15.4 6.848C13.5333 6.848 11.7787 7.22133 10.136 7.968C8.53067 8.71466 6.776 9.94666 4.872 11.664L0.56 6.512C2.83733 4.45866 5.24533 2.90933 7.784 1.864C10.3227 0.818664 12.936 0.295997 15.624 0.295997C17.7147 0.295997 19.6373 0.594664 21.392 1.192C23.184 1.752 24.696 2.55466 25.928 3.6C27.1973 4.64533 28.168 5.91466 28.84 7.408C29.5493 8.90133 29.904 10.5253 29.904 12.28C29.904 14.52 29.344 16.592 28.224 18.496C27.104 20.4 25.1627 22.584 22.4 25.048L12.824 33.56H30.408V40H2.128ZM56.6856 37.2L43.1336 11.16V40H35.6296V0.799997H46.0456L56.7976 21.856L67.5496 0.799997H77.9656V40H70.2936V11.216L56.6856 37.2ZM99.9084 32.776H93.9164V22.864H84.0604V16.928H93.9164V7.296H99.9084V16.928H109.708V22.864H99.9084V32.776Z" fill="#222222"/>
</svg>
